<svg xmlns="http://www.w3.org/2000/svg" xmlns:xlink="http://www.w3.org/1999/xlink" width="888" height="749" version="1.1"><defs><clipPath id="tdxUeEiksffB"><path fill="none" stroke="none" d="M 0 0 L 888 0 L 888 749 L 0 749 L 0 0 Z"/></clipPath></defs><g clip-path="url(#tdxUeEiksffB)" transform="scale(1,1)"><g><rect width="888" height="749" x="0" y="0" fill="#FFF" fill-opacity="1" stroke="none"/><path fill="none" stroke="silver" stroke-linecap="round" stroke-linejoin="round" stroke-miterlimit="10" stroke-opacity="1" d="M 16.5 0.5 L 16.5 749.5 M 16.5 0.5 L 16.5 749.5 M 85.5 0.5 L 85.5 749.5 M 155.5 0.5 L 155.5 749.5 M 224.5 0.5 L 224.5 749.5 M 294.5 0.5 L 294.5 749.5 M 363.5 0.5 L 363.5 749.5 M 433.5 0.5 L 433.5 749.5 M 502.5 0.5 L 502.5 749.5 M 572.5 0.5 L 572.5 749.5 M 641.5 0.5 L 641.5 749.5 M 711.5 0.5 L 711.5 749.5 M 780.5 0.5 L 780.5 749.5 M 850.5 0.5 L 850.5 749.5" paint-order="fill stroke markers"/><path fill="none" stroke="silver" stroke-linecap="round" stroke-linejoin="round" stroke-miterlimit="10" stroke-opacity=".235" paint-order="fill stroke markers"/><path fill="none" stroke="silver" stroke-linecap="round" stroke-linejoin="round" stroke-miterlimit="10" stroke-opacity="1" d="M 0.5 5.5 L 888.5 5.5 M 0.5 5.5 L 888.5 5.5 M 0.5 75.5 L 888.5 75.5 M 0.5 144.5 L 888.5 144.5 M 0.5 214.5 L 888.5 214.5 M 0.5 283.5 L 888.5 283.5 M 0.5 353.5 L 888.5 353.5 M 0.5 422.5 L 888.5 422.5 M 0.5 492.5 L 888.5 492.5 M 0.5 561.5 L 888.5 561.5 M 0.5 631.5 L 888.5 631.5 M 0.5 700.5 L 888.5 700.5" paint-order="fill stroke markers"/><path fill="none" stroke="silver" stroke-linecap="round" stroke-linejoin="round" stroke-miterlimit="10" stroke-opacity=".235" paint-order="fill stroke markers"/><path fill="none" stroke="#000" stroke-dasharray="10.5 8" stroke-linejoin="round" stroke-miterlimit="10" stroke-opacity=".698" stroke-width="2.5" d="M 721.1488348837792 492.37967215974714 C 721.1488348837792 766.5179650848473 498.9158392496894 988.7509607189361 224.77754632458812 988.7509607189361 C -49.36074660051324 988.7509607189361 -271.5937422346029 766.5179650848473 -271.5937422346029 492.37967215974714 C -271.5937422346029 218.24137923464696 -49.36074660051324 -3.9916163994417957 224.77754632458812 -3.9916163994417957 C 498.9158392496894 -3.9916163994417957 721.1488348837792 218.24137923464696 721.1488348837792 492.37967215974714 Z" paint-order="fill stroke markers"/><path fill="#000" fill-opacity=".098" stroke="none" d="M 253.43890111720296 501.24120371201593 C 257.2638569632039 488.86993177988006 252.7193941799086 475.44061094394084 242.16789642231484 467.9343101563222 L 224.77754632458814 492.37967215974714 Z" paint-order="stroke fill markers"/><path fill="none" stroke="#000" stroke-linecap="round" stroke-linejoin="round" stroke-miterlimit="10" stroke-opacity=".6" stroke-width="2.5" d="M 253.43890111720296 501.24120371201593 C 257.2638569632039 488.86993177988006 252.7193941799086 475.44061094394084 242.16789642231484 467.9343101563222 L 224.77754632458814 492.37967215974714 Z" paint-order="fill stroke markers"/><text x="238" y="491" fill="#000" fill-opacity="1" stroke="none" dominant-baseline="alphabetic" font-family="geogebra-sans-serif, sans-serif" font-size="16" font-style="normal" font-weight="normal" text-anchor="start" text-decoration="normal">α = 71.7526664794713°</text><text x="238" y="491" fill="none" stroke="#FFF" stroke-linejoin="bevel" stroke-miterlimit="10" stroke-opacity="1" stroke-width="3" dominant-baseline="alphabetic" font-family="geogebra-sans-serif, sans-serif" font-size="16" font-style="normal" font-weight="normal" text-anchor="start" text-decoration="normal">α = 71.7526664794713°</text><text x="238" y="491" fill="#000" fill-opacity="1" stroke="none" dominant-baseline="alphabetic" font-family="geogebra-sans-serif, sans-serif" font-size="16" font-style="normal" font-weight="normal" text-anchor="start" text-decoration="normal">α = 71.7526664794713°</text><path fill="none" stroke="#000" stroke-linecap="round" stroke-linejoin="round" stroke-miterlimit="10" stroke-opacity=".698" stroke-width="2.5" d="M 224.77754632458814 492.37967215974714 L 398.50955951756487 144.91564577379512" paint-order="fill stroke markers"/><path fill="none" stroke="#000" stroke-linecap="round" stroke-linejoin="round" stroke-miterlimit="10" stroke-opacity=".698" stroke-width="2.5" d="M 398.50955951756487 144.91564577379512 L 888 -99.8295744674214" paint-order="fill stroke markers"/><path fill="none" stroke="#000" stroke-linecap="round" stroke-linejoin="round" stroke-miterlimit="10" stroke-opacity=".698" stroke-width="2.5" d="M 224.77754632458814 492.37967215974714 L 512.5132292080566 87.91381092854954" paint-order="fill stroke markers"/><text x="372" y="308" fill="#000" fill-opacity="1" stroke="none" dominant-baseline="alphabetic" font-family="geogebra-sans-serif, sans-serif" font-size="16" font-style="normal" font-weight="normal" text-anchor="start" text-decoration="normal">r</text><text x="372" y="308" fill="none" stroke="#FFF" stroke-linejoin="bevel" stroke-miterlimit="10" stroke-opacity="1" stroke-width="3" dominant-baseline="alphabetic" font-family="geogebra-sans-serif, sans-serif" font-size="16" font-style="normal" font-weight="normal" text-anchor="start" text-decoration="normal">r</text><text x="372" y="308" fill="#000" fill-opacity="1" stroke="none" dominant-baseline="alphabetic" font-family="geogebra-sans-serif, sans-serif" font-size="16" font-style="normal" font-weight="normal" text-anchor="start" text-decoration="normal">r</text><path fill="none" stroke="#000" stroke-dasharray="2.5 3" stroke-linejoin="round" stroke-miterlimit="10" stroke-opacity=".698" stroke-width="2.5" d="M 120.53833840880206 283.90125632817586 L 224.77754632458814 492.37967215974714" paint-order="fill stroke markers"/><path fill="none" stroke="#000" stroke-dasharray="2.5 3" stroke-linejoin="round" stroke-miterlimit="10" stroke-opacity=".698" stroke-width="2.5" d="M 120.53833840880206 283.90125632817586 L 398.50955951756487 144.91564577379512" paint-order="fill stroke markers"/><path fill="none" stroke="#2E7D32" stroke-linecap="round" stroke-linejoin="round" stroke-miterlimit="10" stroke-opacity=".698" stroke-width="2.5" d="M 224.77754632458814 492.37967215974714 L 557.036310463543 326.25029009027037" paint-order="fill stroke markers"/><path fill="#2E7D32" fill-opacity=".698" fill-rule="evenodd" stroke="none" d="M 572.2415727105416 318.64765896677113 L 558.9369682444178 330.05160565202 L 555.1356526826683 322.44897452852075 Z" paint-order="stroke fill markers"/><text x="371" y="410" fill="#2E7D32" fill-opacity="1" stroke="none" dominant-baseline="alphabetic" font-family="geogebra-sans-serif, sans-serif" font-size="16" font-style="normal" font-weight="normal" text-anchor="start" text-decoration="normal">forward</text><text x="371" y="410" fill="none" stroke="#FFF" stroke-linejoin="bevel" stroke-miterlimit="10" stroke-opacity="1" stroke-width="3" dominant-baseline="alphabetic" font-family="geogebra-sans-serif, sans-serif" font-size="16" font-style="normal" font-weight="normal" text-anchor="start" text-decoration="normal">forward</text><text x="371" y="410" fill="#2E7D32" fill-opacity="1" stroke="none" dominant-baseline="alphabetic" font-family="geogebra-sans-serif, sans-serif" font-size="16" font-style="normal" font-weight="normal" text-anchor="start" text-decoration="normal">forward</text><path fill="none" stroke="#2E7D32" stroke-linecap="round" stroke-linejoin="round" stroke-miterlimit="10" stroke-opacity=".698" stroke-width="2.5" d="M 224.77754632458814 492.37967215974714 L 682.7585656175183 633.9784654537143" paint-order="fill stroke markers"/><path fill="#2E7D32" fill-opacity=".698" fill-rule="evenodd" stroke="none" d="M 699.0000000000001 639 L 681.5031819809469 638.0388240493347 L 684.0139492540898 629.9181068580939 Z" paint-order="stroke fill markers"/><path fill="#2E7D32" fill-opacity="1" stroke="none" d="M 229.77754632458814 492.37967215974714 C 229.77754632458814 495.1410959089011 227.53897007374212 497.37967215974714 224.77754632458814 497.37967215974714 C 222.01612257543417 497.37967215974714 219.77754632458814 495.1410959089011 219.77754632458814 492.37967215974714 C 219.77754632458814 489.6182484105932 222.01612257543417 487.37967215974714 224.77754632458814 487.37967215974714 C 227.53897007374212 487.37967215974714 229.77754632458814 489.6182484105932 229.77754632458814 492.37967215974714 Z" paint-order="stroke fill markers"/><path fill="none" stroke="#000" stroke-linecap="round" stroke-linejoin="round" stroke-miterlimit="10" stroke-opacity="1" d="M 229.77754632458814 492.37967215974714 C 229.77754632458814 495.1410959089011 227.53897007374212 497.37967215974714 224.77754632458814 497.37967215974714 C 222.01612257543417 497.37967215974714 219.77754632458814 495.1410959089011 219.77754632458814 492.37967215974714 C 219.77754632458814 489.6182484105932 222.01612257543417 487.37967215974714 224.77754632458814 487.37967215974714 C 227.53897007374212 487.37967215974714 229.77754632458814 489.6182484105932 229.77754632458814 492.37967215974714 Z" paint-order="fill stroke markers"/><text x="203" y="503" fill="#2E7D32" fill-opacity="1" stroke="none" dominant-baseline="alphabetic" font-family="geogebra-sans-serif, sans-serif" font-size="16" font-style="normal" font-weight="normal" text-anchor="start" text-decoration="normal">C</text><text x="203" y="503" fill="none" stroke="#FFF" stroke-linejoin="bevel" stroke-miterlimit="10" stroke-opacity="1" stroke-width="3" dominant-baseline="alphabetic" font-family="geogebra-sans-serif, sans-serif" font-size="16" font-style="normal" font-weight="normal" text-anchor="start" text-decoration="normal">C</text><text x="203" y="503" fill="#2E7D32" fill-opacity="1" stroke="none" dominant-baseline="alphabetic" font-family="geogebra-sans-serif, sans-serif" font-size="16" font-style="normal" font-weight="normal" text-anchor="start" text-decoration="normal">C</text><path fill="#2E7D32" fill-opacity="1" stroke="none" d="M 403.50955951756487 144.91564577379512 C 403.50955951756487 147.6770695229491 401.2709832667188 149.91564577379512 398.50955951756487 149.91564577379512 C 395.7481357684109 149.91564577379512 393.50955951756487 147.6770695229491 393.50955951756487 144.91564577379512 C 393.50955951756487 142.15422202464114 395.7481357684109 139.91564577379512 398.50955951756487 139.91564577379512 C 401.2709832667188 139.91564577379512 403.50955951756487 142.15422202464114 403.50955951756487 144.91564577379512 Z" paint-order="stroke fill markers"/><path fill="none" stroke="#000" stroke-linecap="round" stroke-linejoin="round" stroke-miterlimit="10" stroke-opacity="1" d="M 403.50955951756487 144.91564577379512 C 403.50955951756487 147.6770695229491 401.2709832667188 149.91564577379512 398.50955951756487 149.91564577379512 C 395.7481357684109 149.91564577379512 393.50955951756487 147.6770695229491 393.50955951756487 144.91564577379512 C 393.50955951756487 142.15422202464114 395.7481357684109 139.91564577379512 398.50955951756487 139.91564577379512 C 401.2709832667188 139.91564577379512 403.50955951756487 142.15422202464114 403.50955951756487 144.91564577379512 Z" paint-order="fill stroke markers"/><text x="373" y="131" fill="#2E7D32" fill-opacity="1" stroke="none" dominant-baseline="alphabetic" font-family="geogebra-sans-serif, sans-serif" font-size="16" font-style="normal" font-weight="normal" text-anchor="start" text-decoration="normal">Offset</text><text x="373" y="131" fill="none" stroke="#FFF" stroke-linejoin="bevel" stroke-miterlimit="10" stroke-opacity="1" stroke-width="3" dominant-baseline="alphabetic" font-family="geogebra-sans-serif, sans-serif" font-size="16" font-style="normal" font-weight="normal" text-anchor="start" text-decoration="normal">Offset</text><text x="373" y="131" fill="#2E7D32" fill-opacity="1" stroke="none" dominant-baseline="alphabetic" font-family="geogebra-sans-serif, sans-serif" font-size="16" font-style="normal" font-weight="normal" text-anchor="start" text-decoration="normal">Offset</text><path fill="none" stroke="#2E7D32" stroke-linecap="square" stroke-miterlimit="10" stroke-opacity="1" stroke-width="2.5" d="M 694.0000000000001 634 L 704.0000000000001 644" paint-order="fill stroke markers"/><path fill="none" stroke="#2E7D32" stroke-linecap="square" stroke-miterlimit="10" stroke-opacity="1" stroke-width="2.5" d="M 694.0000000000001 644 L 704.0000000000001 634" paint-order="fill stroke markers"/><text x="703" y="629" fill="#2E7D32" fill-opacity="1" stroke="none" dominant-baseline="alphabetic" font-family="geogebra-sans-serif, sans-serif" font-size="16" font-style="normal" font-weight="normal" text-anchor="start" text-decoration="normal">Target</text><text x="703" y="629" fill="none" stroke="#FFF" stroke-linejoin="bevel" stroke-miterlimit="10" stroke-opacity="1" stroke-width="3" dominant-baseline="alphabetic" font-family="geogebra-sans-serif, sans-serif" font-size="16" font-style="normal" font-weight="normal" text-anchor="start" text-decoration="normal">Target</text><text x="703" y="629" fill="#2E7D32" fill-opacity="1" stroke="none" dominant-baseline="alphabetic" font-family="geogebra-sans-serif, sans-serif" font-size="16" font-style="normal" font-weight="normal" text-anchor="start" text-decoration="normal">Target</text><path fill="none" stroke="#2E7D32" stroke-linecap="square" stroke-miterlimit="10" stroke-opacity="1" stroke-width="2.5" d="M 567.2415727105416 313.64765896677113 L 577.2415727105416 323.64765896677113" paint-order="fill stroke markers"/><path fill="none" stroke="#2E7D32" stroke-linecap="square" stroke-miterlimit="10" stroke-opacity="1" stroke-width="2.5" d="M 567.2415727105416 323.64765896677113 L 577.2415727105416 313.64765896677113" paint-order="fill stroke markers"/><path fill="#D32F2F" fill-opacity="1" stroke="none" d="M 517.5132292080566 87.91381092854954 C 517.5132292080566 90.6752346777035 515.2746529572106 92.91381092854954 512.5132292080566 92.91381092854954 C 509.75180545890265 92.91381092854954 507.5132292080566 90.6752346777035 507.5132292080566 87.91381092854954 C 507.5132292080566 85.15238717939557 509.75180545890265 82.91381092854954 512.5132292080566 82.91381092854954 C 515.2746529572106 82.91381092854954 517.5132292080566 85.15238717939557 517.5132292080566 87.91381092854954 Z" paint-order="stroke fill markers"/><path fill="none" stroke="#000" stroke-linecap="round" stroke-linejoin="round" stroke-miterlimit="10" stroke-opacity="1" d="M 517.5132292080566 87.91381092854954 C 517.5132292080566 90.6752346777035 515.2746529572106 92.91381092854954 512.5132292080566 92.91381092854954 C 509.75180545890265 92.91381092854954 507.5132292080566 90.6752346777035 507.5132292080566 87.91381092854954 C 507.5132292080566 85.15238717939557 509.75180545890265 82.91381092854954 512.5132292080566 82.91381092854954 C 515.2746529572106 82.91381092854954 517.5132292080566 85.15238717939557 517.5132292080566 87.91381092854954 Z" paint-order="fill stroke markers"/><text x="517" y="78" fill="#D32F2F" fill-opacity="1" stroke="none" dominant-baseline="alphabetic" font-family="geogebra-sans-serif, sans-serif" font-size="16" font-style="normal" font-weight="normal" text-anchor="start" text-decoration="normal">I</text><text x="517" y="78" fill="none" stroke="#FFF" stroke-linejoin="bevel" stroke-miterlimit="10" stroke-opacity="1" stroke-width="3" dominant-baseline="alphabetic" font-family="geogebra-sans-serif, sans-serif" font-size="16" font-style="normal" font-weight="normal" text-anchor="start" text-decoration="normal">I</text><text x="517" y="78" fill="#D32F2F" fill-opacity="1" stroke="none" dominant-baseline="alphabetic" font-family="geogebra-sans-serif, sans-serif" font-size="16" font-style="normal" font-weight="normal" text-anchor="start" text-decoration="normal">I</text><path fill="#616161" fill-opacity="1" stroke="none" d="M 125.53833840880206 283.90125632817586 C 125.53833840880206 286.6626800773298 123.29976215795602 288.90125632817586 120.53833840880206 288.90125632817586 C 117.7769146596481 288.90125632817586 115.53833840880206 286.6626800773298 115.53833840880206 283.90125632817586 C 115.53833840880206 281.1398325790219 117.7769146596481 278.90125632817586 120.53833840880206 278.90125632817586 C 123.29976215795602 278.90125632817586 125.53833840880206 281.1398325790219 125.53833840880206 283.90125632817586 Z" paint-order="stroke fill markers"/><path fill="none" stroke="#000" stroke-linecap="round" stroke-linejoin="round" stroke-miterlimit="10" stroke-opacity="1" d="M 125.53833840880206 283.90125632817586 C 125.53833840880206 286.6626800773298 123.29976215795602 288.90125632817586 120.53833840880206 288.90125632817586 C 117.7769146596481 288.90125632817586 115.53833840880206 286.6626800773298 115.53833840880206 283.90125632817586 C 115.53833840880206 281.1398325790219 117.7769146596481 278.90125632817586 120.53833840880206 278.90125632817586 C 123.29976215795602 278.90125632817586 125.53833840880206 281.1398325790219 125.53833840880206 283.90125632817586 Z" paint-order="fill stroke markers"/><text x="125" y="274" fill="#616161" fill-opacity="1" stroke="none" dominant-baseline="alphabetic" font-family="geogebra-sans-serif, sans-serif" font-size="16" font-style="normal" font-weight="normal" text-anchor="start" text-decoration="normal">A</text><text x="125" y="274" fill="none" stroke="#FFF" stroke-linejoin="bevel" stroke-miterlimit="10" stroke-opacity="1" stroke-width="3" dominant-baseline="alphabetic" font-family="geogebra-sans-serif, sans-serif" font-size="16" font-style="normal" font-weight="normal" text-anchor="start" text-decoration="normal">A</text><text x="125" y="274" fill="#616161" fill-opacity="1" stroke="none" dominant-baseline="alphabetic" font-family="geogebra-sans-serif, sans-serif" font-size="16" font-style="normal" font-weight="normal" text-anchor="start" text-decoration="normal">A</text></g></g></svg>
