<svg xmlns="http://www.w3.org/2000/svg" xmlns:xlink="http://www.w3.org/1999/xlink" width="774" height="749" version="1.1"><defs><clipPath id="TfXqrluJUWXQ"><path fill="none" stroke="none" d="M 0 0 L 774 0 L 774 749 L 0 749 L 0 0 Z"/></clipPath></defs><g clip-path="url(#TfXqrluJUWXQ)" transform="scale(1,1)"><g><rect width="774" height="749" x="0" y="0" fill="#FFF" fill-opacity="1" stroke="none"/><path fill="none" stroke="silver" stroke-linecap="round" stroke-linejoin="round" stroke-miterlimit="10" stroke-opacity="1" d="M 7.5 0.5 L 7.5 749.5 M 7.5 0.5 L 7.5 749.5 M 63.5 0.5 L 63.5 749.5 M 119.5 0.5 L 119.5 749.5 M 176.5 0.5 L 176.5 749.5 M 232.5 0.5 L 232.5 749.5 M 288.5 0.5 L 288.5 749.5 M 344.5 0.5 L 344.5 749.5 M 401.5 0.5 L 401.5 749.5 M 457.5 0.5 L 457.5 749.5 M 513.5 0.5 L 513.5 749.5 M 569.5 0.5 L 569.5 749.5 M 626.5 0.5 L 626.5 749.5 M 682.5 0.5 L 682.5 749.5 M 738.5 0.5 L 738.5 749.5" paint-order="fill stroke markers"/><path fill="none" stroke="silver" stroke-linecap="round" stroke-linejoin="round" stroke-miterlimit="10" stroke-opacity=".235" paint-order="fill stroke markers"/><path fill="none" stroke="silver" stroke-linecap="round" stroke-linejoin="round" stroke-miterlimit="10" stroke-opacity="1" d="M 0.5 37.5 L 774.5 37.5 M 0.5 37.5 L 774.5 37.5 M 0.5 93.5 L 774.5 93.5 M 0.5 150.5 L 774.5 150.5 M 0.5 206.5 L 774.5 206.5 M 0.5 262.5 L 774.5 262.5 M 0.5 318.5 L 774.5 318.5 M 0.5 375.5 L 774.5 375.5 M 0.5 431.5 L 774.5 431.5 M 0.5 487.5 L 774.5 487.5 M 0.5 543.5 L 774.5 543.5 M 0.5 600.5 L 774.5 600.5 M 0.5 656.5 L 774.5 656.5 M 0.5 712.5 L 774.5 712.5" paint-order="fill stroke markers"/><path fill="none" stroke="silver" stroke-linecap="round" stroke-linejoin="round" stroke-miterlimit="10" stroke-opacity=".235" paint-order="fill stroke markers"/><path fill="#1565C0" fill-opacity=".098" fill-rule="evenodd" stroke="none" d="M 63.66666666666664 150.12499999999818 L 176.16666666666652 150.12499999999818 L 176.16666666666652 262.6249999999984 Z" paint-order="stroke fill markers"/><path fill="none" stroke="#1565C0" stroke-linecap="round" stroke-linejoin="round" stroke-miterlimit="10" stroke-opacity="1" d="M 63.66666666666664 150.12499999999818 L 176.16666666666652 150.12499999999818 L 176.16666666666652 262.6249999999984 Z" paint-order="fill stroke markers"/><text x="181" y="212" fill="#1565C0" fill-opacity="1" stroke="none" dominant-baseline="alphabetic" font-family="geogebra-sans-serif, sans-serif" font-size="16" font-style="normal" font-weight="normal" text-anchor="start" text-decoration="normal">m = -1</text><text x="181" y="212" fill="none" stroke="#FFF" stroke-linejoin="bevel" stroke-miterlimit="10" stroke-opacity="1" stroke-width="3" dominant-baseline="alphabetic" font-family="geogebra-sans-serif, sans-serif" font-size="16" font-style="normal" font-weight="normal" text-anchor="start" text-decoration="normal">m = -1</text><text x="181" y="212" fill="#1565C0" fill-opacity="1" stroke="none" dominant-baseline="alphabetic" font-family="geogebra-sans-serif, sans-serif" font-size="16" font-style="normal" font-weight="normal" text-anchor="start" text-decoration="normal">m = -1</text><text x="119" y="168" fill="#1565C0" fill-opacity="1" stroke="none" dominant-baseline="alphabetic" font-family="geogebra-sans-serif, sans-serif" font-size="16" font-style="normal" font-weight="normal" text-anchor="start" text-decoration="normal">1</text><text x="119" y="168" fill="none" stroke="#FFF" stroke-linejoin="bevel" stroke-miterlimit="10" stroke-opacity="1" stroke-width="3" dominant-baseline="alphabetic" font-family="geogebra-sans-serif, sans-serif" font-size="16" font-style="normal" font-weight="normal" text-anchor="start" text-decoration="normal">1</text><text x="119" y="168" fill="#1565C0" fill-opacity="1" stroke="none" dominant-baseline="alphabetic" font-family="geogebra-sans-serif, sans-serif" font-size="16" font-style="normal" font-weight="normal" text-anchor="start" text-decoration="normal">1</text><path fill="#000" fill-opacity=".098" fill-rule="evenodd" stroke="none" d="M 288.6666666666664 375.12499999999864 L 303.6666666666654 390.12499999999767 L 318.6666666666664 375.12499999999864 L 303.6666666666654 360.1249999999996 L 288.6666666666664 375.12499999999864" paint-order="stroke fill markers"/><path fill="none" stroke="#000" stroke-linecap="round" stroke-linejoin="round" stroke-miterlimit="10" stroke-opacity=".6" stroke-width="2.5" d="M 288.6666666666664 375.12499999999864 L 303.6666666666654 390.12499999999767 L 318.6666666666664 375.12499999999864 L 303.6666666666654 360.1249999999996 L 288.6666666666664 375.12499999999864" paint-order="fill stroke markers"/><path fill="#000" fill-opacity=".098" fill-rule="evenodd" stroke="none" d="M 414.40615720556116 500.86449053889385 L 429.40615720556013 515.8644905388929 L 444.40615720556116 500.86449053889385 L 429.40615720556013 485.8644905388948 L 414.40615720556116 500.86449053889385" paint-order="stroke fill markers"/><path fill="none" stroke="#000" stroke-linecap="round" stroke-linejoin="round" stroke-miterlimit="10" stroke-opacity=".6" stroke-width="2.5" d="M 414.40615720556116 500.86449053889385 L 429.40615720556013 515.8644905388929 L 444.40615720556116 500.86449053889385 L 429.40615720556013 485.8644905388948 L 414.40615720556116 500.86449053889385" paint-order="fill stroke markers"/><path fill="none" stroke="#2E7D32" stroke-linecap="round" stroke-linejoin="round" stroke-miterlimit="10" stroke-opacity=".698" stroke-width="5" d="M 667.5416666666666 754 L -5 81.45833333333124" paint-order="fill stroke markers"/><text x="5" y="113" fill="#2E7D32" fill-opacity="1" stroke="none" dominant-baseline="alphabetic" font-family="geogebra-sans-serif, sans-serif" font-size="16" font-style="normal" font-weight="normal" text-anchor="start" text-decoration="normal">ground</text><text x="5" y="113" fill="none" stroke="#FFF" stroke-linejoin="bevel" stroke-miterlimit="10" stroke-opacity="1" stroke-width="3" dominant-baseline="alphabetic" font-family="geogebra-sans-serif, sans-serif" font-size="16" font-style="normal" font-weight="normal" text-anchor="start" text-decoration="normal">ground</text><text x="5" y="113" fill="#2E7D32" fill-opacity="1" stroke="none" dominant-baseline="alphabetic" font-family="geogebra-sans-serif, sans-serif" font-size="16" font-style="normal" font-weight="normal" text-anchor="start" text-decoration="normal">ground</text><path fill="none" stroke="#000" stroke-linecap="round" stroke-linejoin="round" stroke-miterlimit="10" stroke-opacity=".698" stroke-width="2.5" d="M 569.9166666666661 754 L 569.9166666666661 -5" paint-order="fill stroke markers"/><text x="553" y="16" fill="#000" fill-opacity="1" stroke="none" dominant-baseline="alphabetic" font-family="geogebra-sans-serif, sans-serif" font-size="16" font-style="normal" font-weight="normal" text-anchor="start" text-decoration="normal">ray</text><text x="553" y="16" fill="none" stroke="#FFF" stroke-linejoin="bevel" stroke-miterlimit="10" stroke-opacity="1" stroke-width="3" dominant-baseline="alphabetic" font-family="geogebra-sans-serif, sans-serif" font-size="16" font-style="normal" font-weight="normal" text-anchor="start" text-decoration="normal">ray</text><text x="553" y="16" fill="#000" fill-opacity="1" stroke="none" dominant-baseline="alphabetic" font-family="geogebra-sans-serif, sans-serif" font-size="16" font-style="normal" font-weight="normal" text-anchor="start" text-decoration="normal">ray</text><path fill="none" stroke="#000" stroke-linecap="round" stroke-linejoin="round" stroke-miterlimit="10" stroke-opacity=".698" stroke-width="2.5" d="M -5 668.791666666666 L 668.7916666666638 -5" paint-order="fill stroke markers"/><text x="636" y="16" fill="#000" fill-opacity="1" stroke="none" dominant-baseline="alphabetic" font-family="geogebra-sans-serif, sans-serif" font-size="16" font-style="normal" font-weight="normal" text-anchor="start" text-decoration="normal">f</text><text x="636" y="16" fill="none" stroke="#FFF" stroke-linejoin="bevel" stroke-miterlimit="10" stroke-opacity="1" stroke-width="3" dominant-baseline="alphabetic" font-family="geogebra-sans-serif, sans-serif" font-size="16" font-style="normal" font-weight="normal" text-anchor="start" text-decoration="normal">f</text><text x="636" y="16" fill="#000" fill-opacity="1" stroke="none" dominant-baseline="alphabetic" font-family="geogebra-sans-serif, sans-serif" font-size="16" font-style="normal" font-weight="normal" text-anchor="start" text-decoration="normal">f</text><path fill="none" stroke="#000" stroke-linecap="round" stroke-linejoin="round" stroke-miterlimit="10" stroke-opacity=".698" stroke-width="2.5" d="M 161.2706477444557 754 L 779 136.27064774445373" paint-order="fill stroke markers"/><text x="185" y="744" fill="#000" fill-opacity="1" stroke="none" dominant-baseline="alphabetic" font-family="geogebra-sans-serif, sans-serif" font-size="16" font-style="normal" font-weight="normal" text-anchor="start" text-decoration="normal">g</text><text x="185" y="744" fill="none" stroke="#FFF" stroke-linejoin="bevel" stroke-miterlimit="10" stroke-opacity="1" stroke-width="3" dominant-baseline="alphabetic" font-family="geogebra-sans-serif, sans-serif" font-size="16" font-style="normal" font-weight="normal" text-anchor="start" text-decoration="normal">g</text><text x="185" y="744" fill="#000" fill-opacity="1" stroke="none" dominant-baseline="alphabetic" font-family="geogebra-sans-serif, sans-serif" font-size="16" font-style="normal" font-weight="normal" text-anchor="start" text-decoration="normal">g</text><path fill="none" stroke="#000" stroke-linecap="round" stroke-linejoin="round" stroke-miterlimit="10" stroke-opacity=".698" stroke-width="2.5" d="M 414.40615720556116 500.86449053889385 L 569.9166666666661 345.3539810777884" paint-order="fill stroke markers"/><text x="425" y="450" fill="#000" fill-opacity="1" stroke="none" dominant-baseline="alphabetic" font-family="geogebra-sans-serif, sans-serif" font-size="16" font-style="normal" font-weight="normal" text-anchor="start" text-decoration="normal">foot height length</text><text x="425" y="450" fill="none" stroke="#FFF" stroke-linejoin="bevel" stroke-miterlimit="10" stroke-opacity="1" stroke-width="3" dominant-baseline="alphabetic" font-family="geogebra-sans-serif, sans-serif" font-size="16" font-style="normal" font-weight="normal" text-anchor="start" text-decoration="normal">foot height length</text><text x="425" y="450" fill="#000" fill-opacity="1" stroke="none" dominant-baseline="alphabetic" font-family="geogebra-sans-serif, sans-serif" font-size="16" font-style="normal" font-weight="normal" text-anchor="start" text-decoration="normal">foot height length</text><path fill="none" stroke="red" stroke-linecap="round" stroke-linejoin="round" stroke-miterlimit="10" stroke-opacity=".698" stroke-width="3.5" d="M 569.9166666666661 93.87499999999818 L 569.9166666666661 187.37499999999818" paint-order="fill stroke markers"/><path fill="red" fill-opacity=".698" fill-rule="evenodd" stroke="none" d="M 569.9166666666661 206.37499999999818 L 565.1666666666661 187.37499999999818 L 574.6666666666661 187.37499999999818 Z" paint-order="stroke fill markers"/><text x="574" y="150" fill="red" fill-opacity="1" stroke="none" dominant-baseline="alphabetic" font-family="geogebra-sans-serif, sans-serif" font-size="16" font-style="normal" font-weight="normal" text-anchor="start" text-decoration="normal">down</text><text x="574" y="150" fill="none" stroke="#FFF" stroke-linejoin="bevel" stroke-miterlimit="10" stroke-opacity="1" stroke-width="3" dominant-baseline="alphabetic" font-family="geogebra-sans-serif, sans-serif" font-size="16" font-style="normal" font-weight="normal" text-anchor="start" text-decoration="normal">down</text><text x="574" y="150" fill="red" fill-opacity="1" stroke="none" dominant-baseline="alphabetic" font-family="geogebra-sans-serif, sans-serif" font-size="16" font-style="normal" font-weight="normal" text-anchor="start" text-decoration="normal">down</text><path fill="#1565C0" fill-opacity="1" stroke="none" d="M 68.66666666666664 150.12499999999818 C 68.66666666666664 152.88642374915216 66.4280904158206 155.12499999999818 63.66666666666664 155.12499999999818 C 60.90524291751267 155.12499999999818 58.66666666666664 152.88642374915216 58.66666666666664 150.12499999999818 C 58.66666666666664 147.3635762508442 60.90524291751267 145.12499999999818 63.66666666666664 145.12499999999818 C 66.4280904158206 145.12499999999818 68.66666666666664 147.3635762508442 68.66666666666664 150.12499999999818 Z" paint-order="stroke fill markers"/><path fill="none" stroke="#000" stroke-linecap="round" stroke-linejoin="round" stroke-miterlimit="10" stroke-opacity="1" d="M 68.66666666666664 150.12499999999818 C 68.66666666666664 152.88642374915216 66.4280904158206 155.12499999999818 63.66666666666664 155.12499999999818 C 60.90524291751267 155.12499999999818 58.66666666666664 152.88642374915216 58.66666666666664 150.12499999999818 C 58.66666666666664 147.3635762508442 60.90524291751267 145.12499999999818 63.66666666666664 145.12499999999818 C 66.4280904158206 145.12499999999818 68.66666666666664 147.3635762508442 68.66666666666664 150.12499999999818 Z" paint-order="fill stroke markers"/><path fill="none" stroke="#2E7D32" stroke-linecap="square" stroke-miterlimit="10" stroke-opacity="1" stroke-width="2.5" d="M 564.9166666666661 88.87499999999818 L 574.9166666666661 98.87499999999818" paint-order="fill stroke markers"/><path fill="none" stroke="#2E7D32" stroke-linecap="square" stroke-miterlimit="10" stroke-opacity="1" stroke-width="2.5" d="M 564.9166666666661 98.87499999999818 L 574.9166666666661 88.87499999999818" paint-order="fill stroke markers"/><text x="574" y="84" fill="#2E7D32" fill-opacity="1" stroke="none" dominant-baseline="alphabetic" font-family="geogebra-sans-serif, sans-serif" font-size="16" font-style="normal" font-weight="normal" text-anchor="start" text-decoration="normal">A (Ankle)</text><text x="574" y="84" fill="none" stroke="#FFF" stroke-linejoin="bevel" stroke-miterlimit="10" stroke-opacity="1" stroke-width="3" dominant-baseline="alphabetic" font-family="geogebra-sans-serif, sans-serif" font-size="16" font-style="normal" font-weight="normal" text-anchor="start" text-decoration="normal">A (Ankle)</text><text x="574" y="84" fill="#2E7D32" fill-opacity="1" stroke="none" dominant-baseline="alphabetic" font-family="geogebra-sans-serif, sans-serif" font-size="16" font-style="normal" font-weight="normal" text-anchor="start" text-decoration="normal">A (Ankle)</text><path fill="#0C0" fill-opacity="1" stroke="none" d="M 574.9166666666661 93.87499999999818 C 574.9166666666661 96.63642374915214 572.6780904158201 98.87499999999818 569.9166666666661 98.87499999999818 C 567.155242917512 98.87499999999818 564.9166666666661 96.63642374915214 564.9166666666661 93.87499999999818 C 564.9166666666661 91.11357625084422 567.155242917512 88.87499999999818 569.9166666666661 88.87499999999818 C 572.6780904158201 88.87499999999818 574.9166666666661 91.11357625084422 574.9166666666661 93.87499999999818 Z" paint-order="stroke fill markers"/><path fill="none" stroke="#000" stroke-linecap="round" stroke-linejoin="round" stroke-miterlimit="10" stroke-opacity="1" d="M 574.9166666666661 93.87499999999818 C 574.9166666666661 96.63642374915214 572.6780904158201 98.87499999999818 569.9166666666661 98.87499999999818 C 567.155242917512 98.87499999999818 564.9166666666661 96.63642374915214 564.9166666666661 93.87499999999818 C 564.9166666666661 91.11357625084422 567.155242917512 88.87499999999818 569.9166666666661 88.87499999999818 C 572.6780904158201 88.87499999999818 574.9166666666661 91.11357625084422 574.9166666666661 93.87499999999818 Z" paint-order="fill stroke markers"/><path fill="red" fill-opacity="1" stroke="none" d="M 574.9166666666661 656.3749999999992 C 574.9166666666661 659.1364237491532 572.6780904158201 661.3749999999992 569.9166666666661 661.3749999999992 C 567.155242917512 661.3749999999992 564.9166666666661 659.1364237491532 564.9166666666661 656.3749999999992 C 564.9166666666661 653.6135762508452 567.155242917512 651.3749999999992 569.9166666666661 651.3749999999992 C 572.6780904158201 651.3749999999992 574.9166666666661 653.6135762508452 574.9166666666661 656.3749999999992 Z" paint-order="stroke fill markers"/><path fill="none" stroke="#000" stroke-linecap="round" stroke-linejoin="round" stroke-miterlimit="10" stroke-opacity="1" d="M 574.9166666666661 656.3749999999992 C 574.9166666666661 659.1364237491532 572.6780904158201 661.3749999999992 569.9166666666661 661.3749999999992 C 567.155242917512 661.3749999999992 564.9166666666661 659.1364237491532 564.9166666666661 656.3749999999992 C 564.9166666666661 653.6135762508452 567.155242917512 651.3749999999992 569.9166666666661 651.3749999999992 C 572.6780904158201 651.3749999999992 574.9166666666661 653.6135762508452 574.9166666666661 656.3749999999992 Z" paint-order="fill stroke markers"/><text x="590" y="646" fill="red" fill-opacity="1" stroke="none" dominant-baseline="alphabetic" font-family="geogebra-sans-serif, sans-serif" font-size="16" font-style="normal" font-weight="normal" text-anchor="start" text-decoration="normal">I (ray/floor intersection)</text><text x="590" y="646" fill="none" stroke="#FFF" stroke-linejoin="bevel" stroke-miterlimit="10" stroke-opacity="1" stroke-width="3" dominant-baseline="alphabetic" font-family="geogebra-sans-serif, sans-serif" font-size="16" font-style="normal" font-weight="normal" text-anchor="start" text-decoration="normal">I (ray/floor intersection)</text><text x="590" y="646" fill="red" fill-opacity="1" stroke="none" dominant-baseline="alphabetic" font-family="geogebra-sans-serif, sans-serif" font-size="16" font-style="normal" font-weight="normal" text-anchor="start" text-decoration="normal">I (ray/floor intersection)</text><path fill="#0C0" fill-opacity="1" stroke="none" d="M 574.9166666666661 345.3539810777884 C 574.9166666666661 348.1154048269423 572.6780904158201 350.3539810777884 569.9166666666661 350.3539810777884 C 567.155242917512 350.3539810777884 564.9166666666661 348.1154048269423 564.9166666666661 345.3539810777884 C 564.9166666666661 342.5925573286344 567.155242917512 340.3539810777884 569.9166666666661 340.3539810777884 C 572.6780904158201 340.3539810777884 574.9166666666661 342.5925573286344 574.9166666666661 345.3539810777884 Z" paint-order="stroke fill markers"/><path fill="none" stroke="#000" stroke-linecap="round" stroke-linejoin="round" stroke-miterlimit="10" stroke-opacity="1" d="M 574.9166666666661 345.3539810777884 C 574.9166666666661 348.1154048269423 572.6780904158201 350.3539810777884 569.9166666666661 350.3539810777884 C 567.155242917512 350.3539810777884 564.9166666666661 348.1154048269423 564.9166666666661 345.3539810777884 C 564.9166666666661 342.5925573286344 567.155242917512 340.3539810777884 569.9166666666661 340.3539810777884 C 572.6780904158201 340.3539810777884 574.9166666666661 342.5925573286344 574.9166666666661 345.3539810777884 Z" paint-order="fill stroke markers"/><text x="574" y="335" fill="#0C0" fill-opacity="1" stroke="none" dominant-baseline="alphabetic" font-family="geogebra-sans-serif, sans-serif" font-size="16" font-style="normal" font-weight="normal" text-anchor="start" text-decoration="normal">C (Corrected Ankle)</text><text x="574" y="335" fill="none" stroke="#FFF" stroke-linejoin="bevel" stroke-miterlimit="10" stroke-opacity="1" stroke-width="3" dominant-baseline="alphabetic" font-family="geogebra-sans-serif, sans-serif" font-size="16" font-style="normal" font-weight="normal" text-anchor="start" text-decoration="normal">C (Corrected Ankle)</text><text x="574" y="335" fill="#0C0" fill-opacity="1" stroke="none" dominant-baseline="alphabetic" font-family="geogebra-sans-serif, sans-serif" font-size="16" font-style="normal" font-weight="normal" text-anchor="start" text-decoration="normal">C (Corrected Ankle)</text><path fill="#616161" fill-opacity="1" stroke="none" d="M 419.40615720556116 500.86449053889385 C 419.40615720556116 503.6259142880478 417.1675809547151 505.86449053889385 414.40615720556116 505.86449053889385 C 411.6447334564072 505.86449053889385 409.40615720556116 503.6259142880478 409.40615720556116 500.86449053889385 C 409.40615720556116 498.1030667897399 411.6447334564072 495.86449053889385 414.40615720556116 495.86449053889385 C 417.1675809547151 495.86449053889385 419.40615720556116 498.1030667897399 419.40615720556116 500.86449053889385 Z" paint-order="stroke fill markers"/><path fill="none" stroke="#000" stroke-linecap="round" stroke-linejoin="round" stroke-miterlimit="10" stroke-opacity="1" d="M 419.40615720556116 500.86449053889385 C 419.40615720556116 503.6259142880478 417.1675809547151 505.86449053889385 414.40615720556116 505.86449053889385 C 411.6447334564072 505.86449053889385 409.40615720556116 503.6259142880478 409.40615720556116 500.86449053889385 C 409.40615720556116 498.1030667897399 411.6447334564072 495.86449053889385 414.40615720556116 495.86449053889385 C 417.1675809547151 495.86449053889385 419.40615720556116 498.1030667897399 419.40615720556116 500.86449053889385 Z" paint-order="fill stroke markers"/><text x="418" y="491" fill="#616161" fill-opacity="1" stroke="none" dominant-baseline="alphabetic" font-family="geogebra-sans-serif, sans-serif" font-size="16" font-style="normal" font-weight="normal" text-anchor="start" text-decoration="normal">H</text><text x="418" y="491" fill="none" stroke="#FFF" stroke-linejoin="bevel" stroke-miterlimit="10" stroke-opacity="1" stroke-width="3" dominant-baseline="alphabetic" font-family="geogebra-sans-serif, sans-serif" font-size="16" font-style="normal" font-weight="normal" text-anchor="start" text-decoration="normal">H</text><text x="418" y="491" fill="#616161" fill-opacity="1" stroke="none" dominant-baseline="alphabetic" font-family="geogebra-sans-serif, sans-serif" font-size="16" font-style="normal" font-weight="normal" text-anchor="start" text-decoration="normal">H</text><path fill="#616161" fill-opacity="1" stroke="none" d="M 293.6666666666664 375.12499999999864 C 293.6666666666664 377.8864237491526 291.42809041582035 380.12499999999864 288.6666666666664 380.12499999999864 C 285.90524291751245 380.12499999999864 283.6666666666664 377.8864237491526 283.6666666666664 375.12499999999864 C 283.6666666666664 372.3635762508447 285.90524291751245 370.12499999999864 288.6666666666664 370.12499999999864 C 291.42809041582035 370.12499999999864 293.6666666666664 372.3635762508447 293.6666666666664 375.12499999999864 Z" paint-order="stroke fill markers"/><path fill="none" stroke="#000" stroke-linecap="round" stroke-linejoin="round" stroke-miterlimit="10" stroke-opacity="1" d="M 293.6666666666664 375.12499999999864 C 293.6666666666664 377.8864237491526 291.42809041582035 380.12499999999864 288.6666666666664 380.12499999999864 C 285.90524291751245 380.12499999999864 283.6666666666664 377.8864237491526 283.6666666666664 375.12499999999864 C 283.6666666666664 372.3635762508447 285.90524291751245 370.12499999999864 288.6666666666664 370.12499999999864 C 291.42809041582035 370.12499999999864 293.6666666666664 372.3635762508447 293.6666666666664 375.12499999999864 Z" paint-order="fill stroke markers"/><text x="293" y="365" fill="#616161" fill-opacity="1" stroke="none" dominant-baseline="alphabetic" font-family="geogebra-sans-serif, sans-serif" font-size="16" font-style="normal" font-weight="normal" text-anchor="start" text-decoration="normal">B</text><text x="293" y="365" fill="none" stroke="#FFF" stroke-linejoin="bevel" stroke-miterlimit="10" stroke-opacity="1" stroke-width="3" dominant-baseline="alphabetic" font-family="geogebra-sans-serif, sans-serif" font-size="16" font-style="normal" font-weight="normal" text-anchor="start" text-decoration="normal">B</text><text x="293" y="365" fill="#616161" fill-opacity="1" stroke="none" dominant-baseline="alphabetic" font-family="geogebra-sans-serif, sans-serif" font-size="16" font-style="normal" font-weight="normal" text-anchor="start" text-decoration="normal">B</text></g></g></svg>
